IKResults
version=1
nRows=11
nColumns=40
inDegrees=yes

Units are S.I. units (second, meters, Newtons, ...)
Angles are in degrees.

endheader
time	pelvis_tilt	pelvis_list	pelvis_rotation	pelvis_tx	pelvis_ty	pelvis_tz	hip_flexion_r	hip_adduction_r	hip_rotation_r	knee_angle_r	knee_angle_r_beta	ankle_angle_r	subtalar_angle_r	mtp_angle_r	hip_flexion_l	hip_adduction_l	hip_rotation_l	knee_angle_l	knee_angle_l_beta	ankle_angle_l	subtalar_angle_l	mtp_angle_l	lumbar_extension	lumbar_bending	lumbar_rotation	arm_flex_r	arm_add_r	arm_rot_r	elbow_flex_r	pro_sup_r	wrist_flex_r	wrist_dev_r	arm_flex_l	arm_add_l	arm_rot_l	elbow_flex_l	pro_sup_l	wrist_flex_l	wrist_dev_l
      1.16000000	     17.34705864	     -3.55291951	      8.40490490	      0.52374326	      0.94753466	     -1.02311536	     -8.95955834	      7.22153927	     -9.09973365	    -18.87094237	     -0.32936008	      6.42548526	     -8.89427644	     -0.72084890	     -7.44911750	      3.27854409	     -3.77351674	    -63.14354052	     -1.10206268	      3.72742114	     16.44233382	     -0.95760700	    -22.47565391	      8.53839577	     -6.22603300	     -5.29351619	    -12.03792564	     -3.84924818	     19.22570750	     89.95437384	      0.00000000	      0.00000000	      9.82375629	      6.56118722	      1.46627858	     32.15881919	     89.95437384	      0.00000000	      0.00000000
      1.17000000	     17.29405018	     -3.18332185	      7.96233315	      0.53693695	      0.94857140	     -1.02189966	    -10.18704037	      6.92355099	     -8.87018019	    -18.32797487	     -0.31988351	      6.94144785	     -8.33710585	     -0.80972047	     -5.74158063	      2.84220143	     -3.29127078	    -63.17718952	     -1.10264997	      4.76399725	     16.55030185	     -0.99174293	    -22.61014993	      7.94030600	     -5.83291634	     -4.79804307	    -12.02701052	     -3.89728287	     20.09486310	     89.95437384	      0.00000000	      0.00000000	      9.57675655	      6.56413107	      2.11155004	     30.31884196	     89.95437384	      0.00000000	      0.00000000
      1.18000000	     17.17420822	     -2.85339717	      7.58153779	      0.55022623	      0.94912873	     -1.02051102	    -11.16939189	      6.61345799	     -9.25157299	    -18.06720565	     -0.31533223	      7.36778349	     -8.22003543	     -0.83678725	     -3.90555839	      2.70485812	     -2.45663945	    -63.02392527	     -1.09997500	      5.33603882	     16.57830763	     -0.97909312	    -22.63687262	      7.35172941	     -5.58668205	     -4.22546827	    -11.95330407	     -3.75811896	     20.73741297	     89.95437384	      0.00000000	      0.00000000	      8.94724998	      6.85537423	      2.33200009	     29.17427550	     89.95437384	      0.00000000	      0.00000000
      1.19000000	     17.36270499	     -2.36475687	      6.64055914	      0.56388310	      0.95028273	     -1.01911209	    -12.72869042	      6.06989887	     -8.50369215	    -17.41601066	     -0.30396673	      8.01781157	     -7.36395510	     -1.03377705	     -2.92763045	      2.10954665	     -1.51826416	    -62.05989880	     -1.08314957	      6.31192641	     16.96029344	     -0.80081821	    -22.99943870	      6.53326071	     -4.73361252	     -3.98212397	    -12.20898617	     -2.92332036	     21.94550754	     89.95437384	      0.00000000	      0.00000000	      8.83524358	      6.51176008	      4.28405581	     26.94396700	     89.95437384	      0.00000000	      0.00000000
      1.20000000	     17.15227569	     -2.12963876	      6.34363802	      0.57728488	      0.95019993	     -1.01759449	    -13.48606106	      5.85304164	     -8.74344355	    -17.31734135	     -0.30224462	      8.44093021	     -7.30796898	     -1.06901169	     -1.13660462	      2.13820877	     -0.76620749	    -61.34657729	     -1.07069976	      6.80903652	     16.98762148	     -0.74839863	    -22.84720339	      6.02794195	     -4.56039737	     -3.46831249	    -12.10312445	     -2.79739341	     22.63796957	     89.95437384	      0.00000000	      0.00000000	      8.06592193	      6.87988845	      4.48069701	     25.92630426	     89.95437384	      0.00000000	      0.00000000
      1.21000000	     17.26541489	     -1.56090903	      5.13197574	      0.59086731	      0.95066863	     -1.01574949	    -14.74894093	      5.13515731	     -7.54279250	    -17.05157893	     -0.29760620	      9.20532469	     -6.95172423	     -1.27176423	     -0.23872917	      1.59734901	      0.62753264	    -59.85611294	     -1.04468625	      7.75610974	     17.31649050	     -0.47498941	    -23.12958406	      4.98606136	     -3.43096898	     -3.30274711	    -12.34145041	     -2.08828006	     23.89081203	     89.95437384	      0.00000000	      0.00000000	      7.96482440	      6.64781449	      6.37532191	     23.84476166	     89.95437384	      0.00000000	      0.00000000
      1.22000000	     17.25293772	     -1.17056415	      4.33528095	      0.60455330	      0.95053356	     -1.01440511	    -15.76494364	      4.61037276	     -7.01662439	    -16.88734912	     -0.29473984	      9.80943588	     -6.90526310	     -1.41590194	      0.89786614	      1.37588430	      1.79173694	    -58.34788412	     -1.01836269	      8.39884332	     17.48364388	     -0.13885924	    -23.18127835	      4.26654784	     -2.83173191	     -2.93125126	    -12.50874756	     -1.65559204	     24.89638814	     89.95437384	      0.00000000	      0.00000000	      7.36934323	      6.68381120	      7.69688434	     22.49234953	     89.95437384	      0.00000000	      0.00000000
      1.23000000	     17.31649204	     -0.75554819	      3.51294855	      0.61805060	      0.95037999	     -1.01270530	    -16.82720615	      4.10454681	     -6.24300462	    -16.82286138	     -0.29361432	     10.27658236	     -7.07525231	     -1.50228579	      1.82569656	      1.20132887	      3.04127691	    -56.44383500	     -0.98513076	      8.98994654	     17.63963067	      0.32426570	    -23.33554380	      3.45981303	     -2.20028723	     -2.64738134	    -12.63280824	     -1.04135878	     26.08435428	     89.95437384	      0.00000000	      0.00000000	      6.88116197	      6.80197745	      9.12418753	     21.18752339	     89.95437384	      0.00000000	      0.00000000
      1.24000000	     17.49938019	     -0.39618464	      2.75698754	      0.63189668	      0.95012498	     -1.01117998	    -18.17677969	      3.69418580	     -5.47128258	    -16.40368855	     -0.28629837	     10.44443031	     -7.69807862	     -1.48834421	      2.50039306	      1.08656518	      4.22243890	    -54.32060756	     -0.94807345	      9.56677644	     17.76029589	      1.53646968	    -23.54465140	      2.75386381	     -1.71698914	     -2.31311846	    -12.80622331	     -0.32799061	     27.21397589	     89.95437384	      0.00000000	      0.00000000	      6.22545343	      6.86241257	     11.08508147	     20.09722123	     89.95437384	      0.00000000	      0.00000000
      1.25000000	     17.08926141	     -0.37153459	      2.65175791	      0.64524242	      0.94848822	     -1.01019494	    -18.58300531	      3.72550930	     -5.71469450	    -16.47621954	     -0.28756428	     10.86007083	     -7.78489697	     -1.50583918	      4.13313930	      1.42664074	      5.02191666	    -52.47208911	     -0.91581072	      9.98018301	     17.84286668	      1.65109620	    -23.08972625	      2.56619122	     -1.70634920	     -1.95854466	    -12.78166852	     -0.30871883	     28.23093707	     89.95437384	      0.00000000	      0.00000000	      5.31304691	      7.23168558	     11.20442086	     19.33288560	     89.95437384	      0.00000000	      0.00000000
      1.26000000	     17.41694220	      0.24585273	      1.46257923	      0.65913155	      0.94804439	     -1.00865461	    -19.99816413	      2.83259646	     -4.52373662	    -16.33832232	     -0.28515752	     11.52606504	     -8.14274064	     -1.50708402	      4.20919867	      0.99950463	      6.66904355	    -49.54612298	     -0.86474298	     10.79510443	     17.99405364	      2.28991745	    -23.46039940	      1.50076289	     -0.67161457	     -2.12009341	    -13.14149131	      0.19849386	     30.09347472	     89.95437384	      0.00000000	      0.00000000	      4.95951651	      7.26155672	     12.71621799	     17.97597415	     89.95437384	      0.00000000	      0.00000000
